<svg fill="#fff" aria-hidden="true" width="12" height="12" viewBox="0 0 12 12" xmlns="http://www.w3.org/2000/svg" class="⚙    as-5c as-1s as-1t as-1u as-4g as-7v as-7w as-32 ⚙o08nhv"><path fill-rule="evenodd" clip-rule="evenodd" d="M4 6.375c0-.345.28-.625.625-.625h2.75a.625.625 0 1 1 0 1.25h-2.75A.625.625 0 0 1 4 6.375Zm0 2.25C4 8.28 4.28 8 4.625 8h2.75a.625.625 0 1 1 0 1.25h-2.75A.625.625 0 0 1 4 8.625Z"></path><path fill-rule="evenodd" clip-rule="evenodd" d="M8.437 1.5A2 2 0 0 0 6.5 0h-1a2 2 0 0 0-1.937 1.5H3a2 2 0 0 0-2 2V10a2 2 0 0 0 2 2h6a2 2 0 0 0 2-2V3.5a2 2 0 0 0-2-2h-.563ZM4.9 3.1h2.2V2a.6.6 0 0 0-.6-.6h-1a.6.6 0 0 0-.6.6v1.1ZM8 4.5H4a.5.5 0 0 1-.5-.5V2.9H3a.6.6 0 0 0-.6.6V10a.6.6 0 0 0 .6.6h6a.6.6 0 0 0 .6-.6V3.5a.6.6 0 0 0-.6-.6h-.5V4a.5.5 0 0 1-.5.5Z"></path></svg>